HIERARCHY
ROOT Hips
{
	OFFSET 0.000000 0.000000 0.000000
	CHANNELS 6 Xposition Yposition Zposition Xrotation Zrotation Yrotation
	JOINT LeftHipJoint
	{
		OFFSET 0.100000 0.000000 0.000000
		CHANNELS 6 Xposition Yposition Zposition Xrotation Zrotation Yrotation
		JOINT LeftUpLeg
		{
			OFFSET 0.107972 0.000000 0.000000
			CHANNELS 6 Xposition Yposition Zposition Xrotation Zrotation Yrotation
			JOINT LeftLeg
			{
				OFFSET 0.000000 0.000000 -0.351231
				CHANNELS 6 Xposition Yposition Zposition Xrotation Zrotation Yrotation
				JOINT LeftFoot
				{
					OFFSET 0.000000 0.000000 -0.469094
					CHANNELS 6 Xposition Yposition Zposition Xrotation Zrotation Yrotation
					End Site
					{
						OFFSET 0.000000 -0.100000 0.000000
					}
				}
			}
		}
	}
	JOINT LowerBack
	{
		OFFSET 0.000000 0.000000 0.100000
		CHANNELS 6 Xposition Yposition Zposition Xrotation Zrotation Yrotation
		JOINT Spine
		{
			OFFSET 0.000000 0.000000 0.194444
			CHANNELS 6 Xposition Yposition Zposition Xrotation Zrotation Yrotation
			JOINT Spine1
			{
				OFFSET 0.000000 0.000000 0.227222
				CHANNELS 6 Xposition Yposition Zposition Xrotation Zrotation Yrotation
				JOINT LeftShoulder
				{
					OFFSET 0.100000 0.000000 0.000000
					CHANNELS 6 Xposition Yposition Zposition Xrotation Zrotation Yrotation
					JOINT LeftArm
					{
						OFFSET 0.123584 0.000000 0.000000
						CHANNELS 6 Xposition Yposition Zposition Xrotation Zrotation Yrotation
						JOINT LeftForeArm
						{
							OFFSET 0.229562 0.000000 0.000000
							CHANNELS 6 Xposition Yposition Zposition Xrotation Zrotation Yrotation
							JOINT LeftHand
							{
								OFFSET 0.160834 0.000000 0.000000
								CHANNELS 6 Xposition Yposition Zposition Xrotation Zrotation Yrotation
								End Site
								{
									OFFSET 0.100000 0.000000 0.000000
								}
							}
						}
					}
				}
				JOINT Neck
				{
					OFFSET 0.000000 0.000000 0.100000
					CHANNELS 6 Xposition Yposition Zposition Xrotation Zrotation Yrotation
					JOINT Neck1
					{
						OFFSET 0.000000 0.000000 0.161555
						CHANNELS 6 Xposition Yposition Zposition Xrotation Zrotation Yrotation
						End Site
						{
							OFFSET 0.000000 0.000000 0.081267
						}
					}
				}
				JOINT RightShoulder
				{
					OFFSET -0.100000 0.000000 0.000000
					CHANNELS 6 Xposition Yposition Zposition Xrotation Zrotation Yrotation
					JOINT RightArm
					{
						OFFSET -0.123584 0.000000 0.000000
						CHANNELS 6 Xposition Yposition Zposition Xrotation Zrotation Yrotation
						JOINT RightForeArm
						{
							OFFSET -0.229562 0.000000 0.000000
							CHANNELS 6 Xposition Yposition Zposition Xrotation Zrotation Yrotation
							JOINT RightHand
							{
								OFFSET -0.160834 0.000000 0.000000
								CHANNELS 6 Xposition Yposition Zposition Xrotation Zrotation Yrotation
								End Site
								{
									OFFSET -0.100000 0.000000 0.000000
								}
							}
						}
					}
				}
			}
		}
	}
	JOINT RightHipJoint
	{
		OFFSET -0.100000 0.000000 0.000000
		CHANNELS 6 Xposition Yposition Zposition Xrotation Zrotation Yrotation
		JOINT RightUpLeg
		{
			OFFSET -0.107972 0.000000 0.000000
			CHANNELS 6 Xposition Yposition Zposition Xrotation Zrotation Yrotation
			JOINT RightLeg
			{
				OFFSET 0.000000 0.000000 -0.351231
				CHANNELS 6 Xposition Yposition Zposition Xrotation Zrotation Yrotation
				JOINT RightFoot
				{
					OFFSET 0.000000 0.000000 -0.469094
					CHANNELS 6 Xposition Yposition Zposition Xrotation Zrotation Yrotation
					End Site
					{
						OFFSET 0.000000 -0.100000 0.000000
					}
				}
			}
		}
	}
}
MOTION
Frames: 4
Frame Time: 0.041667
0.000000 0.000000 0.000000 9.757345 -0.000003 -2.054446 0.100000 -0.000000 0.000000 0.000002 -0.000000 0.000000 0.107972 0.000000 -0.000000 -83.940272 6.694760 -3.466111 0.000000 0.000000 -0.351231 112.219045 -1.036155 16.829180 -0.000000 0.000000 -0.469094 0.000003 0.000000 0.000003 0.000000 -0.000000 0.100000 0.000002 -0.000000 0.000000 0.000000 -0.000000 0.194444 0.426249 -0.015291 -32.024216 0.000000 0.000000 0.227222 -0.000001 17.027699 -0.000000 0.100000 -0.000000 -0.000000 0.000001 -0.000000 0.000002 0.123584 0.000000 0.000000 -64.291191 13.898149 33.186701 0.229562 -0.000000 0.000000 0.000000 -29.931958 -0.000001 0.160834 0.000000 0.000000 0.000001 -0.000004 -0.000000 0.000000 0.000000 0.100000 0.000000 0.000001 0.000001 -0.000000 0.000000 0.161555 66.105692 7.869012 10.710717 -0.100000 0.000000 0.000000 0.000000 0.000000 0.000002 -0.123584 -0.000000 0.000000 -25.689706 59.800888 2.659556 -0.229562 -0.000000 0.000000 0.000009 28.535036 0.000002 -0.160834 0.000000 0.000000 0.000001 0.000001 -0.000000 -0.100000 0.000000 -0.000000 0.000002 -0.000000 0.000000 -0.107972 0.000000 -0.000000 -53.507005 -4.150204 4.102784 -0.000000 0.000000 -0.351231 84.264980 3.026594 19.205420 0.000000 -0.000000 -0.469094 0.000001 -0.000000 -0.000000 
0.000000 0.000000 0.000000 9.837091 0.000001 -1.998046 0.100000 0.000000 -0.000000 -0.000000 0.000000 0.000000 0.107972 0.000000 -0.000000 -84.033429 6.631942 -3.501044 0.000000 0.000000 -0.351231 112.276753 -1.041323 16.853195 -0.000000 -0.000000 -0.469094 -0.000000 -0.000002 -0.000001 0.000000 0.000000 0.100000 0.000000 0.000000 0.000000 0.000000 0.000000 0.194444 0.504430 -0.017598 -31.984512 0.000000 0.000000 0.227222 0.000002 17.012910 -0.000001 0.100000 -0.000000 0.000000 0.000000 -0.000001 0.000002 0.123584 0.000000 -0.000000 -64.108251 13.680701 33.114369 0.229562 -0.000000 0.000000 0.000001 -29.772767 0.000001 0.160834 -0.000000 -0.000000 0.000002 0.000000 0.000001 0.000000 -0.000000 0.100000 0.000000 -0.000001 0.000001 0.000000 0.000000 0.161555 65.920867 8.044066 10.732977 -0.100000 -0.000000 -0.000000 0.000001 -0.000001 0.000002 -0.123584 -0.000000 0.000000 -25.165173 59.873233 3.172383 -0.229562 -0.000000 0.000000 -0.000005 28.738909 0.000000 -0.160834 -0.000000 -0.000000 -0.000001 -0.000001 0.000002 -0.100000 -0.000000 0.000000 -0.000000 0.000000 0.000000 -0.107972 0.000000 0.000000 -53.345427 -4.201647 4.247254 -0.000000 0.000000 -0.351231 83.935799 3.200437 19.145389 -0.000000 0.000000 -0.469094 0.000002 -0.000001 0.000002 
0.000000 0.000000 0.000000 9.919209 -0.000001 -1.944195 0.100000 -0.000000 0.000000 -0.000000 -0.000000 0.000000 0.107972 0.000000 -0.000000 -84.127023 6.574124 -3.533437 0.000000 0.000000 -0.351231 112.336647 -1.042455 16.874358 -0.000000 0.000000 -0.469094 -0.000002 -0.000000 0.000002 -0.000000 -0.000000 0.100000 -0.000000 -0.000000 0.000000 0.000000 -0.000000 0.194444 0.587198 -0.019932 -31.939713 0.000000 0.000000 0.227222 0.000002 16.992442 0.000001 0.100000 0.000000 0.000000 0.000001 -0.000000 0.000008 0.123584 0.000000 0.000000 -63.915811 13.467553 33.034917 0.229562 -0.000000 0.000000 -0.000002 -29.621380 -0.000001 0.160834 -0.000000 0.000000 0.000001 0.000002 -0.000000 -0.000000 0.000000 0.100000 0.000001 0.000001 0.000006 -0.000000 0.000000 0.161555 65.716781 8.224088 10.755560 -0.100000 0.000000 0.000000 0.000001 0.000000 0.000008 -0.123584 -0.000000 0.000000 -24.641239 59.946911 3.688251 -0.229562 -0.000000 0.000000 -0.000000 28.951003 -0.000003 -0.160834 -0.000000 0.000000 -0.000002 0.000000 0.000003 -0.100000 0.000000 -0.000000 -0.000000 -0.000000 0.000000 -0.107972 0.000000 -0.000000 -53.167391 -4.254429 4.406964 0.000000 -0.000000 -0.351231 83.582521 3.388262 19.079324 -0.000000 -0.000000 -0.469094 -0.000001 -0.000000 0.000001 
0.000000 0.000000 0.000000 10.016126 -0.000000 -1.888082 0.100000 -0.000000 0.000000 -0.000000 -0.000000 -0.000000 0.107972 0.000000 -0.000000 -84.230760 6.525935 -3.563730 0.000000 -0.000000 -0.351231 112.389328 -1.054146 16.884043 -0.000000 -0.000000 -0.469094 -0.000002 -0.000000 -0.000002 -0.000000 0.000000 0.100000 0.000000 -0.000000 -0.000000 0.000000 0.000000 0.194444 0.672288 -0.022162 -31.893835 0.000000 0.000000 0.227222 0.000002 16.966398 -0.000002 0.100000 -0.000000 0.000000 -0.000001 -0.000001 0.000003 0.123584 0.000000 -0.000000 -63.700462 13.245865 32.945117 0.229562 -0.000000 0.000000 0.000007 -29.471587 -0.000001 0.160834 -0.000000 0.000000 0.000004 -0.000002 0.000000 0.000000 -0.000000 0.100000 -0.000001 -0.000001 0.000004 -0.000000 0.000000 0.161555 65.491016 8.416073 10.780108 -0.100000 -0.000000 -0.000000 -0.000001 -0.000000 0.000003 -0.123584 -0.000000 0.000000 -24.110636 60.025430 4.219496 -0.229562 -0.000000 0.000000 -0.000003 29.175215 0.000004 -0.160834 0.000000 0.000000 0.000001 0.000000 -0.000001 -0.100000 0.000000 -0.000000 -0.000000 -0.000000 -0.000000 -0.107972 0.000000 -0.000000 -52.972744 -4.313261 4.584274 -0.000000 -0.000000 -0.351231 83.194989 3.616474 19.002216 -0.000000 -0.000000 -0.469094 0.000002 0.000000 -0.000001 
